<svg width="462" height="360" viewBox="0 0 462 360" fill="none" xmlns="http://www.w3.org/2000/svg">
<ellipse cx="226.675" cy="166.242" rx="189.403" ry="166.242" fill="#CBE81A" fill-opacity="0.5"/>
<path d="M224.013 6.11469L418.014 271.529H30.0121L224.013 6.11469Z" fill="url(#paint0_radial_201_5)"/>
<path d="M224.013 6.11469L418.014 271.529H30.0121L224.013 6.11469Z" fill="#70FF00" fill-opacity="0.74"/>
<path d="M175.062 116.397L210.799 70.2503L187.108 39.4859C183.896 35.3003 179.281 33.2075 173.263 33.2075C167.246 33.2075 162.625 35.3003 159.402 39.4859L120.051 90.6552L175.062 116.397ZM330.458 201.783L294.721 155.323L350.535 130.209L376.234 163.799C379.178 167.357 380.784 171.333 381.052 175.728C381.32 180.123 380.115 184.204 377.438 187.971C374.761 192.157 370.81 195.505 365.585 198.016C360.359 200.528 354.674 201.783 348.527 201.783H330.458ZM284.281 289.682L220.035 239.454L284.281 189.227V214.34H360.573L337.284 250.755C334.34 254.941 330.324 258.289 325.238 260.801C320.152 263.312 314.53 264.568 308.373 264.568H284.281V289.682ZM128.885 264.568C123.531 264.568 118.643 263.467 114.221 261.265C109.799 259.064 106.522 256.188 104.391 252.639C102.25 249.29 101.249 245.783 101.388 242.116C101.527 238.45 102.796 235.051 105.194 231.92L118.847 214.34H187.912V264.568H128.885ZM89.1328 228.781L63.0328 187.971C60.6236 184.204 59.4832 180.173 59.6117 175.879C59.7402 171.584 61.2821 167.558 64.2374 163.799L70.662 155.323L43.3574 142.452L131.294 125.187L153.379 194.249L125.673 181.065L89.1328 228.781ZM305.964 121.42L218.027 104.154L245.733 91.283L195.541 25.9873H252.158C257.779 25.9873 263.069 27.0881 268.027 29.2898C272.984 31.4914 276.93 34.4716 279.864 38.2303L300.744 65.5414L328.049 52.3567L305.964 121.42Z" fill="#C1FF91"/>
<path d="M75.2734 198.309H70.7148V196.469H75.2734C76.1562 196.469 76.8711 196.328 77.418 196.047C77.9648 195.766 78.3633 195.375 78.6133 194.875C78.8711 194.375 79 193.805 79 193.164C79 192.578 78.8711 192.027 78.6133 191.512C78.3633 190.996 77.9648 190.582 77.418 190.27C76.8711 189.949 76.1562 189.789 75.2734 189.789H71.2422V205H68.9805V187.938H75.2734C76.5625 187.938 77.6523 188.16 78.543 188.605C79.4336 189.051 80.1094 189.668 80.5703 190.457C81.0312 191.238 81.2617 192.133 81.2617 193.141C81.2617 194.234 81.0312 195.168 80.5703 195.941C80.1094 196.715 79.4336 197.305 78.543 197.711C77.6523 198.109 76.5625 198.309 75.2734 198.309ZM88.8906 205.234C88.0078 205.234 87.207 205.086 86.4883 204.789C85.7773 204.484 85.1641 204.059 84.6484 203.512C84.1406 202.965 83.75 202.316 83.4766 201.566C83.2031 200.816 83.0664 199.996 83.0664 199.105V198.613C83.0664 197.582 83.2188 196.664 83.5234 195.859C83.8281 195.047 84.2422 194.359 84.7656 193.797C85.2891 193.234 85.8828 192.809 86.5469 192.52C87.2109 192.23 87.8984 192.086 88.6094 192.086C89.5156 192.086 90.2969 192.242 90.9531 192.555C91.6172 192.867 92.1602 193.305 92.582 193.867C93.0039 194.422 93.3164 195.078 93.5195 195.836C93.7227 196.586 93.8242 197.406 93.8242 198.297V199.27H84.3555V197.5H91.6562V197.336C91.625 196.773 91.5078 196.227 91.3047 195.695C91.1094 195.164 90.7969 194.727 90.3672 194.383C89.9375 194.039 89.3516 193.867 88.6094 193.867C88.1172 193.867 87.6641 193.973 87.25 194.184C86.8359 194.387 86.4805 194.691 86.1836 195.098C85.8867 195.504 85.6562 196 85.4922 196.586C85.3281 197.172 85.2461 197.848 85.2461 198.613V199.105C85.2461 199.707 85.3281 200.273 85.4922 200.805C85.6641 201.328 85.9102 201.789 86.2305 202.188C86.5586 202.586 86.9531 202.898 87.4141 203.125C87.8828 203.352 88.4141 203.465 89.0078 203.465C89.7734 203.465 90.4219 203.309 90.9531 202.996C91.4844 202.684 91.9492 202.266 92.3477 201.742L93.6602 202.785C93.3867 203.199 93.0391 203.594 92.6172 203.969C92.1953 204.344 91.6758 204.648 91.0586 204.883C90.4492 205.117 89.7266 205.234 88.8906 205.234ZM98.5234 194.312V205H96.3555V192.32H98.4648L98.5234 194.312ZM102.484 192.25L102.473 194.266C102.293 194.227 102.121 194.203 101.957 194.195C101.801 194.18 101.621 194.172 101.418 194.172C100.918 194.172 100.477 194.25 100.094 194.406C99.7109 194.562 99.3867 194.781 99.1211 195.062C98.8555 195.344 98.6445 195.68 98.4883 196.07C98.3398 196.453 98.2422 196.875 98.1953 197.336L97.5859 197.688C97.5859 196.922 97.6602 196.203 97.8086 195.531C97.9648 194.859 98.2031 194.266 98.5234 193.75C98.8438 193.227 99.25 192.82 99.7422 192.531C100.242 192.234 100.836 192.086 101.523 192.086C101.68 192.086 101.859 192.105 102.062 192.145C102.266 192.176 102.406 192.211 102.484 192.25ZM112.469 192.32H114.438V204.73C114.438 205.848 114.211 206.801 113.758 207.59C113.305 208.379 112.672 208.977 111.859 209.383C111.055 209.797 110.125 210.004 109.07 210.004C108.633 210.004 108.117 209.934 107.523 209.793C106.938 209.66 106.359 209.43 105.789 209.102C105.227 208.781 104.754 208.348 104.371 207.801L105.508 206.512C106.039 207.152 106.594 207.598 107.172 207.848C107.758 208.098 108.336 208.223 108.906 208.223C109.594 208.223 110.188 208.094 110.688 207.836C111.188 207.578 111.574 207.195 111.848 206.688C112.129 206.188 112.27 205.57 112.27 204.836V195.109L112.469 192.32ZM103.738 198.801V198.555C103.738 197.586 103.852 196.707 104.078 195.918C104.312 195.121 104.645 194.438 105.074 193.867C105.512 193.297 106.039 192.859 106.656 192.555C107.273 192.242 107.969 192.086 108.742 192.086C109.539 192.086 110.234 192.227 110.828 192.508C111.43 192.781 111.938 193.184 112.352 193.715C112.773 194.238 113.105 194.871 113.348 195.613C113.59 196.355 113.758 197.195 113.852 198.133V199.211C113.766 200.141 113.598 200.977 113.348 201.719C113.105 202.461 112.773 203.094 112.352 203.617C111.938 204.141 111.43 204.543 110.828 204.824C110.227 205.098 109.523 205.234 108.719 205.234C107.961 205.234 107.273 205.074 106.656 204.754C106.047 204.434 105.523 203.984 105.086 203.406C104.648 202.828 104.312 202.148 104.078 201.367C103.852 200.578 103.738 199.723 103.738 198.801ZM105.906 198.555V198.801C105.906 199.434 105.969 200.027 106.094 200.582C106.227 201.137 106.426 201.625 106.691 202.047C106.965 202.469 107.312 202.801 107.734 203.043C108.156 203.277 108.66 203.395 109.246 203.395C109.965 203.395 110.559 203.242 111.027 202.938C111.496 202.633 111.867 202.23 112.141 201.73C112.422 201.23 112.641 200.688 112.797 200.102V197.277C112.711 196.848 112.578 196.434 112.398 196.035C112.227 195.629 112 195.27 111.719 194.957C111.445 194.637 111.105 194.383 110.699 194.195C110.293 194.008 109.816 193.914 109.27 193.914C108.676 193.914 108.164 194.039 107.734 194.289C107.312 194.531 106.965 194.867 106.691 195.297C106.426 195.719 106.227 196.211 106.094 196.773C105.969 197.328 105.906 197.922 105.906 198.555ZM125.488 202.07V192.32H127.668V205H125.594L125.488 202.07ZM125.898 199.398L126.801 199.375C126.801 200.219 126.711 201 126.531 201.719C126.359 202.43 126.078 203.047 125.688 203.57C125.297 204.094 124.785 204.504 124.152 204.801C123.52 205.09 122.75 205.234 121.844 205.234C121.227 205.234 120.66 205.145 120.145 204.965C119.637 204.785 119.199 204.508 118.832 204.133C118.465 203.758 118.18 203.27 117.977 202.668C117.781 202.066 117.684 201.344 117.684 200.5V192.32H119.852V200.523C119.852 201.094 119.914 201.566 120.039 201.941C120.172 202.309 120.348 202.602 120.566 202.82C120.793 203.031 121.043 203.18 121.316 203.266C121.598 203.352 121.887 203.395 122.184 203.395C123.105 203.395 123.836 203.219 124.375 202.867C124.914 202.508 125.301 202.027 125.535 201.426C125.777 200.816 125.898 200.141 125.898 199.398ZM133.141 195.027V205H130.973V192.32H133.023L133.141 195.027ZM132.625 198.18L131.723 198.145C131.73 197.277 131.859 196.477 132.109 195.742C132.359 195 132.711 194.355 133.164 193.809C133.617 193.262 134.156 192.84 134.781 192.543C135.414 192.238 136.113 192.086 136.879 192.086C137.504 192.086 138.066 192.172 138.566 192.344C139.066 192.508 139.492 192.773 139.844 193.141C140.203 193.508 140.477 193.984 140.664 194.57C140.852 195.148 140.945 195.855 140.945 196.691V205H138.766V196.668C138.766 196.004 138.668 195.473 138.473 195.074C138.277 194.668 137.992 194.375 137.617 194.195C137.242 194.008 136.781 193.914 136.234 193.914C135.695 193.914 135.203 194.027 134.758 194.254C134.32 194.48 133.941 194.793 133.621 195.191C133.309 195.59 133.062 196.047 132.883 196.562C132.711 197.07 132.625 197.609 132.625 198.18ZM149.547 192.32V193.984H142.691V192.32H149.547ZM145.012 189.238H147.18V201.859C147.18 202.289 147.246 202.613 147.379 202.832C147.512 203.051 147.684 203.195 147.895 203.266C148.105 203.336 148.332 203.371 148.574 203.371C148.754 203.371 148.941 203.355 149.137 203.324C149.34 203.285 149.492 203.254 149.594 203.23L149.605 205C149.434 205.055 149.207 205.105 148.926 205.152C148.652 205.207 148.32 205.234 147.93 205.234C147.398 205.234 146.91 205.129 146.465 204.918C146.02 204.707 145.664 204.355 145.398 203.863C145.141 203.363 145.012 202.691 145.012 201.848V189.238ZM159.566 202.832V196.305C159.566 195.805 159.465 195.371 159.262 195.004C159.066 194.629 158.77 194.34 158.371 194.137C157.973 193.934 157.48 193.832 156.895 193.832C156.348 193.832 155.867 193.926 155.453 194.113C155.047 194.301 154.727 194.547 154.492 194.852C154.266 195.156 154.152 195.484 154.152 195.836H151.984C151.984 195.383 152.102 194.934 152.336 194.488C152.57 194.043 152.906 193.641 153.344 193.281C153.789 192.914 154.32 192.625 154.938 192.414C155.562 192.195 156.258 192.086 157.023 192.086C157.945 192.086 158.758 192.242 159.461 192.555C160.172 192.867 160.727 193.34 161.125 193.973C161.531 194.598 161.734 195.383 161.734 196.328V202.234C161.734 202.656 161.77 203.105 161.84 203.582C161.918 204.059 162.031 204.469 162.18 204.812V205H159.918C159.809 204.75 159.723 204.418 159.66 204.004C159.598 203.582 159.566 203.191 159.566 202.832ZM159.941 197.312L159.965 198.836H157.773C157.156 198.836 156.605 198.887 156.121 198.988C155.637 199.082 155.23 199.227 154.902 199.422C154.574 199.617 154.324 199.863 154.152 200.16C153.98 200.449 153.895 200.789 153.895 201.18C153.895 201.578 153.984 201.941 154.164 202.27C154.344 202.598 154.613 202.859 154.973 203.055C155.34 203.242 155.789 203.336 156.32 203.336C156.984 203.336 157.57 203.195 158.078 202.914C158.586 202.633 158.988 202.289 159.285 201.883C159.59 201.477 159.754 201.082 159.777 200.699L160.703 201.742C160.648 202.07 160.5 202.434 160.258 202.832C160.016 203.23 159.691 203.613 159.285 203.98C158.887 204.34 158.41 204.641 157.855 204.883C157.309 205.117 156.691 205.234 156.004 205.234C155.145 205.234 154.391 205.066 153.742 204.73C153.102 204.395 152.602 203.945 152.242 203.383C151.891 202.812 151.715 202.176 151.715 201.473C151.715 200.793 151.848 200.195 152.113 199.68C152.379 199.156 152.762 198.723 153.262 198.379C153.762 198.027 154.363 197.762 155.066 197.582C155.77 197.402 156.555 197.312 157.422 197.312H159.941ZM172.527 201.637C172.527 201.324 172.457 201.035 172.316 200.77C172.184 200.496 171.906 200.25 171.484 200.031C171.07 199.805 170.445 199.609 169.609 199.445C168.906 199.297 168.27 199.121 167.699 198.918C167.137 198.715 166.656 198.469 166.258 198.18C165.867 197.891 165.566 197.551 165.355 197.16C165.145 196.77 165.039 196.312 165.039 195.789C165.039 195.289 165.148 194.816 165.367 194.371C165.594 193.926 165.91 193.531 166.316 193.188C166.73 192.844 167.227 192.574 167.805 192.379C168.383 192.184 169.027 192.086 169.738 192.086C170.754 192.086 171.621 192.266 172.34 192.625C173.059 192.984 173.609 193.465 173.992 194.066C174.375 194.66 174.566 195.32 174.566 196.047H172.398C172.398 195.695 172.293 195.355 172.082 195.027C171.879 194.691 171.578 194.414 171.18 194.195C170.789 193.977 170.309 193.867 169.738 193.867C169.137 193.867 168.648 193.961 168.273 194.148C167.906 194.328 167.637 194.559 167.465 194.84C167.301 195.121 167.219 195.418 167.219 195.73C167.219 195.965 167.258 196.176 167.336 196.363C167.422 196.543 167.57 196.711 167.781 196.867C167.992 197.016 168.289 197.156 168.672 197.289C169.055 197.422 169.543 197.555 170.137 197.688C171.176 197.922 172.031 198.203 172.703 198.531C173.375 198.859 173.875 199.262 174.203 199.738C174.531 200.215 174.695 200.793 174.695 201.473C174.695 202.027 174.578 202.535 174.344 202.996C174.117 203.457 173.785 203.855 173.348 204.191C172.918 204.52 172.402 204.777 171.801 204.965C171.207 205.145 170.539 205.234 169.797 205.234C168.68 205.234 167.734 205.035 166.961 204.637C166.188 204.238 165.602 203.723 165.203 203.09C164.805 202.457 164.605 201.789 164.605 201.086H166.785C166.816 201.68 166.988 202.152 167.301 202.504C167.613 202.848 167.996 203.094 168.449 203.242C168.902 203.383 169.352 203.453 169.797 203.453C170.391 203.453 170.887 203.375 171.285 203.219C171.691 203.062 172 202.848 172.211 202.574C172.422 202.301 172.527 201.988 172.527 201.637ZM188.758 205.234C187.875 205.234 187.074 205.086 186.355 204.789C185.645 204.484 185.031 204.059 184.516 203.512C184.008 202.965 183.617 202.316 183.344 201.566C183.07 200.816 182.934 199.996 182.934 199.105V198.613C182.934 197.582 183.086 196.664 183.391 195.859C183.695 195.047 184.109 194.359 184.633 193.797C185.156 193.234 185.75 192.809 186.414 192.52C187.078 192.23 187.766 192.086 188.477 192.086C189.383 192.086 190.164 192.242 190.82 192.555C191.484 192.867 192.027 193.305 192.449 193.867C192.871 194.422 193.184 195.078 193.387 195.836C193.59 196.586 193.691 197.406 193.691 198.297V199.27H184.223V197.5H191.523V197.336C191.492 196.773 191.375 196.227 191.172 195.695C190.977 195.164 190.664 194.727 190.234 194.383C189.805 194.039 189.219 193.867 188.477 193.867C187.984 193.867 187.531 193.973 187.117 194.184C186.703 194.387 186.348 194.691 186.051 195.098C185.754 195.504 185.523 196 185.359 196.586C185.195 197.172 185.113 197.848 185.113 198.613V199.105C185.113 199.707 185.195 200.273 185.359 200.805C185.531 201.328 185.777 201.789 186.098 202.188C186.426 202.586 186.82 202.898 187.281 203.125C187.75 203.352 188.281 203.465 188.875 203.465C189.641 203.465 190.289 203.309 190.82 202.996C191.352 202.684 191.816 202.266 192.215 201.742L193.527 202.785C193.254 203.199 192.906 203.594 192.484 203.969C192.062 204.344 191.543 204.648 190.926 204.883C190.316 205.117 189.594 205.234 188.758 205.234ZM204.344 194.312V205H202.176V192.32H204.285L204.344 194.312ZM208.305 192.25L208.293 194.266C208.113 194.227 207.941 194.203 207.777 194.195C207.621 194.18 207.441 194.172 207.238 194.172C206.738 194.172 206.297 194.25 205.914 194.406C205.531 194.562 205.207 194.781 204.941 195.062C204.676 195.344 204.465 195.68 204.309 196.07C204.16 196.453 204.062 196.875 204.016 197.336L203.406 197.688C203.406 196.922 203.48 196.203 203.629 195.531C203.785 194.859 204.023 194.266 204.344 193.75C204.664 193.227 205.07 192.82 205.562 192.531C206.062 192.234 206.656 192.086 207.344 192.086C207.5 192.086 207.68 192.105 207.883 192.145C208.086 192.176 208.227 192.211 208.305 192.25ZM215.336 205.234C214.453 205.234 213.652 205.086 212.934 204.789C212.223 204.484 211.609 204.059 211.094 203.512C210.586 202.965 210.195 202.316 209.922 201.566C209.648 200.816 209.512 199.996 209.512 199.105V198.613C209.512 197.582 209.664 196.664 209.969 195.859C210.273 195.047 210.688 194.359 211.211 193.797C211.734 193.234 212.328 192.809 212.992 192.52C213.656 192.23 214.344 192.086 215.055 192.086C215.961 192.086 216.742 192.242 217.398 192.555C218.062 192.867 218.605 193.305 219.027 193.867C219.449 194.422 219.762 195.078 219.965 195.836C220.168 196.586 220.27 197.406 220.27 198.297V199.27H210.801V197.5H218.102V197.336C218.07 196.773 217.953 196.227 217.75 195.695C217.555 195.164 217.242 194.727 216.812 194.383C216.383 194.039 215.797 193.867 215.055 193.867C214.562 193.867 214.109 193.973 213.695 194.184C213.281 194.387 212.926 194.691 212.629 195.098C212.332 195.504 212.102 196 211.938 196.586C211.773 197.172 211.691 197.848 211.691 198.613V199.105C211.691 199.707 211.773 200.273 211.938 200.805C212.109 201.328 212.355 201.789 212.676 202.188C213.004 202.586 213.398 202.898 213.859 203.125C214.328 203.352 214.859 203.465 215.453 203.465C216.219 203.465 216.867 203.309 217.398 202.996C217.93 202.684 218.395 202.266 218.793 201.742L220.105 202.785C219.832 203.199 219.484 203.594 219.062 203.969C218.641 204.344 218.121 204.648 217.504 204.883C216.895 205.117 216.172 205.234 215.336 205.234ZM230.184 201.637C230.184 201.324 230.113 201.035 229.973 200.77C229.84 200.496 229.562 200.25 229.141 200.031C228.727 199.805 228.102 199.609 227.266 199.445C226.562 199.297 225.926 199.121 225.355 198.918C224.793 198.715 224.312 198.469 223.914 198.18C223.523 197.891 223.223 197.551 223.012 197.16C222.801 196.77 222.695 196.312 222.695 195.789C222.695 195.289 222.805 194.816 223.023 194.371C223.25 193.926 223.566 193.531 223.973 193.188C224.387 192.844 224.883 192.574 225.461 192.379C226.039 192.184 226.684 192.086 227.395 192.086C228.41 192.086 229.277 192.266 229.996 192.625C230.715 192.984 231.266 193.465 231.648 194.066C232.031 194.66 232.223 195.32 232.223 196.047H230.055C230.055 195.695 229.949 195.355 229.738 195.027C229.535 194.691 229.234 194.414 228.836 194.195C228.445 193.977 227.965 193.867 227.395 193.867C226.793 193.867 226.305 193.961 225.93 194.148C225.562 194.328 225.293 194.559 225.121 194.84C224.957 195.121 224.875 195.418 224.875 195.73C224.875 195.965 224.914 196.176 224.992 196.363C225.078 196.543 225.227 196.711 225.438 196.867C225.648 197.016 225.945 197.156 226.328 197.289C226.711 197.422 227.199 197.555 227.793 197.688C228.832 197.922 229.688 198.203 230.359 198.531C231.031 198.859 231.531 199.262 231.859 199.738C232.188 200.215 232.352 200.793 232.352 201.473C232.352 202.027 232.234 202.535 232 202.996C231.773 203.457 231.441 203.855 231.004 204.191C230.574 204.52 230.059 204.777 229.457 204.965C228.863 205.145 228.195 205.234 227.453 205.234C226.336 205.234 225.391 205.035 224.617 204.637C223.844 204.238 223.258 203.723 222.859 203.09C222.461 202.457 222.262 201.789 222.262 201.086H224.441C224.473 201.68 224.645 202.152 224.957 202.504C225.27 202.848 225.652 203.094 226.105 203.242C226.559 203.383 227.008 203.453 227.453 203.453C228.047 203.453 228.543 203.375 228.941 203.219C229.348 203.062 229.656 202.848 229.867 202.574C230.078 202.301 230.184 201.988 230.184 201.637ZM237.367 194.758V209.875H235.188V192.32H237.18L237.367 194.758ZM245.91 198.555V198.801C245.91 199.723 245.801 200.578 245.582 201.367C245.363 202.148 245.043 202.828 244.621 203.406C244.207 203.984 243.695 204.434 243.086 204.754C242.477 205.074 241.777 205.234 240.988 205.234C240.184 205.234 239.473 205.102 238.855 204.836C238.238 204.57 237.715 204.184 237.285 203.676C236.855 203.168 236.512 202.559 236.254 201.848C236.004 201.137 235.832 200.336 235.738 199.445V198.133C235.832 197.195 236.008 196.355 236.266 195.613C236.523 194.871 236.863 194.238 237.285 193.715C237.715 193.184 238.234 192.781 238.844 192.508C239.453 192.227 240.156 192.086 240.953 192.086C241.75 192.086 242.457 192.242 243.074 192.555C243.691 192.859 244.211 193.297 244.633 193.867C245.055 194.438 245.371 195.121 245.582 195.918C245.801 196.707 245.91 197.586 245.91 198.555ZM243.73 198.801V198.555C243.73 197.922 243.664 197.328 243.531 196.773C243.398 196.211 243.191 195.719 242.91 195.297C242.637 194.867 242.285 194.531 241.855 194.289C241.426 194.039 240.914 193.914 240.32 193.914C239.773 193.914 239.297 194.008 238.891 194.195C238.492 194.383 238.152 194.637 237.871 194.957C237.59 195.27 237.359 195.629 237.18 196.035C237.008 196.434 236.879 196.848 236.793 197.277V200.312C236.949 200.859 237.168 201.375 237.449 201.859C237.73 202.336 238.105 202.723 238.574 203.02C239.043 203.309 239.633 203.453 240.344 203.453C240.93 203.453 241.434 203.332 241.855 203.09C242.285 202.84 242.637 202.5 242.91 202.07C243.191 201.641 243.398 201.148 243.531 200.594C243.664 200.031 243.73 199.434 243.73 198.801ZM248.102 198.801V198.531C248.102 197.617 248.234 196.77 248.5 195.988C248.766 195.199 249.148 194.516 249.648 193.938C250.148 193.352 250.754 192.898 251.465 192.578C252.176 192.25 252.973 192.086 253.855 192.086C254.746 192.086 255.547 192.25 256.258 192.578C256.977 192.898 257.586 193.352 258.086 193.938C258.594 194.516 258.98 195.199 259.246 195.988C259.512 196.77 259.645 197.617 259.645 198.531V198.801C259.645 199.715 259.512 200.562 259.246 201.344C258.98 202.125 258.594 202.809 258.086 203.395C257.586 203.973 256.98 204.426 256.27 204.754C255.566 205.074 254.77 205.234 253.879 205.234C252.988 205.234 252.188 205.074 251.477 204.754C250.766 204.426 250.156 203.973 249.648 203.395C249.148 202.809 248.766 202.125 248.5 201.344C248.234 200.562 248.102 199.715 248.102 198.801ZM250.27 198.531V198.801C250.27 199.434 250.344 200.031 250.492 200.594C250.641 201.148 250.863 201.641 251.16 202.07C251.465 202.5 251.844 202.84 252.297 203.09C252.75 203.332 253.277 203.453 253.879 203.453C254.473 203.453 254.992 203.332 255.438 203.09C255.891 202.84 256.266 202.5 256.562 202.07C256.859 201.641 257.082 201.148 257.23 200.594C257.387 200.031 257.465 199.434 257.465 198.801V198.531C257.465 197.906 257.387 197.316 257.23 196.762C257.082 196.199 256.855 195.703 256.551 195.273C256.254 194.836 255.879 194.492 255.426 194.242C254.98 193.992 254.457 193.867 253.855 193.867C253.262 193.867 252.738 193.992 252.285 194.242C251.84 194.492 251.465 194.836 251.16 195.273C250.863 195.703 250.641 196.199 250.492 196.762C250.344 197.316 250.27 197.906 250.27 198.531ZM269.746 201.637C269.746 201.324 269.676 201.035 269.535 200.77C269.402 200.496 269.125 200.25 268.703 200.031C268.289 199.805 267.664 199.609 266.828 199.445C266.125 199.297 265.488 199.121 264.918 198.918C264.355 198.715 263.875 198.469 263.477 198.18C263.086 197.891 262.785 197.551 262.574 197.16C262.363 196.77 262.258 196.312 262.258 195.789C262.258 195.289 262.367 194.816 262.586 194.371C262.812 193.926 263.129 193.531 263.535 193.188C263.949 192.844 264.445 192.574 265.023 192.379C265.602 192.184 266.246 192.086 266.957 192.086C267.973 192.086 268.84 192.266 269.559 192.625C270.277 192.984 270.828 193.465 271.211 194.066C271.594 194.66 271.785 195.32 271.785 196.047H269.617C269.617 195.695 269.512 195.355 269.301 195.027C269.098 194.691 268.797 194.414 268.398 194.195C268.008 193.977 267.527 193.867 266.957 193.867C266.355 193.867 265.867 193.961 265.492 194.148C265.125 194.328 264.855 194.559 264.684 194.84C264.52 195.121 264.438 195.418 264.438 195.73C264.438 195.965 264.477 196.176 264.555 196.363C264.641 196.543 264.789 196.711 265 196.867C265.211 197.016 265.508 197.156 265.891 197.289C266.273 197.422 266.762 197.555 267.355 197.688C268.395 197.922 269.25 198.203 269.922 198.531C270.594 198.859 271.094 199.262 271.422 199.738C271.75 200.215 271.914 200.793 271.914 201.473C271.914 202.027 271.797 202.535 271.562 202.996C271.336 203.457 271.004 203.855 270.566 204.191C270.137 204.52 269.621 204.777 269.02 204.965C268.426 205.145 267.758 205.234 267.016 205.234C265.898 205.234 264.953 205.035 264.18 204.637C263.406 204.238 262.82 203.723 262.422 203.09C262.023 202.457 261.824 201.789 261.824 201.086H264.004C264.035 201.68 264.207 202.152 264.52 202.504C264.832 202.848 265.215 203.094 265.668 203.242C266.121 203.383 266.57 203.453 267.016 203.453C267.609 203.453 268.105 203.375 268.504 203.219C268.91 203.062 269.219 202.848 269.43 202.574C269.641 202.301 269.746 201.988 269.746 201.637ZM280.07 192.32V193.984H273.215V192.32H280.07ZM275.535 189.238H277.703V201.859C277.703 202.289 277.77 202.613 277.902 202.832C278.035 203.051 278.207 203.195 278.418 203.266C278.629 203.336 278.855 203.371 279.098 203.371C279.277 203.371 279.465 203.355 279.66 203.324C279.863 203.285 280.016 203.254 280.117 203.23L280.129 205C279.957 205.055 279.73 205.105 279.449 205.152C279.176 205.207 278.844 205.234 278.453 205.234C277.922 205.234 277.434 205.129 276.988 204.918C276.543 204.707 276.188 204.355 275.922 203.863C275.664 203.363 275.535 202.691 275.535 201.848V189.238ZM290.09 202.832V196.305C290.09 195.805 289.988 195.371 289.785 195.004C289.59 194.629 289.293 194.34 288.895 194.137C288.496 193.934 288.004 193.832 287.418 193.832C286.871 193.832 286.391 193.926 285.977 194.113C285.57 194.301 285.25 194.547 285.016 194.852C284.789 195.156 284.676 195.484 284.676 195.836H282.508C282.508 195.383 282.625 194.934 282.859 194.488C283.094 194.043 283.43 193.641 283.867 193.281C284.312 192.914 284.844 192.625 285.461 192.414C286.086 192.195 286.781 192.086 287.547 192.086C288.469 192.086 289.281 192.242 289.984 192.555C290.695 192.867 291.25 193.34 291.648 193.973C292.055 194.598 292.258 195.383 292.258 196.328V202.234C292.258 202.656 292.293 203.105 292.363 203.582C292.441 204.059 292.555 204.469 292.703 204.812V205H290.441C290.332 204.75 290.246 204.418 290.184 204.004C290.121 203.582 290.09 203.191 290.09 202.832ZM290.465 197.312L290.488 198.836H288.297C287.68 198.836 287.129 198.887 286.645 198.988C286.16 199.082 285.754 199.227 285.426 199.422C285.098 199.617 284.848 199.863 284.676 200.16C284.504 200.449 284.418 200.789 284.418 201.18C284.418 201.578 284.508 201.941 284.688 202.27C284.867 202.598 285.137 202.859 285.496 203.055C285.863 203.242 286.312 203.336 286.844 203.336C287.508 203.336 288.094 203.195 288.602 202.914C289.109 202.633 289.512 202.289 289.809 201.883C290.113 201.477 290.277 201.082 290.301 200.699L291.227 201.742C291.172 202.07 291.023 202.434 290.781 202.832C290.539 203.23 290.215 203.613 289.809 203.98C289.41 204.34 288.934 204.641 288.379 204.883C287.832 205.117 287.215 205.234 286.527 205.234C285.668 205.234 284.914 205.066 284.266 204.73C283.625 204.395 283.125 203.945 282.766 203.383C282.414 202.812 282.238 202.176 282.238 201.473C282.238 200.793 282.371 200.195 282.637 199.68C282.902 199.156 283.285 198.723 283.785 198.379C284.285 198.027 284.887 197.762 285.59 197.582C286.293 197.402 287.078 197.312 287.945 197.312H290.465ZM303.051 201.637C303.051 201.324 302.98 201.035 302.84 200.77C302.707 200.496 302.43 200.25 302.008 200.031C301.594 199.805 300.969 199.609 300.133 199.445C299.43 199.297 298.793 199.121 298.223 198.918C297.66 198.715 297.18 198.469 296.781 198.18C296.391 197.891 296.09 197.551 295.879 197.16C295.668 196.77 295.562 196.312 295.562 195.789C295.562 195.289 295.672 194.816 295.891 194.371C296.117 193.926 296.434 193.531 296.84 193.188C297.254 192.844 297.75 192.574 298.328 192.379C298.906 192.184 299.551 192.086 300.262 192.086C301.277 192.086 302.145 192.266 302.863 192.625C303.582 192.984 304.133 193.465 304.516 194.066C304.898 194.66 305.09 195.32 305.09 196.047H302.922C302.922 195.695 302.816 195.355 302.605 195.027C302.402 194.691 302.102 194.414 301.703 194.195C301.312 193.977 300.832 193.867 300.262 193.867C299.66 193.867 299.172 193.961 298.797 194.148C298.43 194.328 298.16 194.559 297.988 194.84C297.824 195.121 297.742 195.418 297.742 195.73C297.742 195.965 297.781 196.176 297.859 196.363C297.945 196.543 298.094 196.711 298.305 196.867C298.516 197.016 298.812 197.156 299.195 197.289C299.578 197.422 300.066 197.555 300.66 197.688C301.699 197.922 302.555 198.203 303.227 198.531C303.898 198.859 304.398 199.262 304.727 199.738C305.055 200.215 305.219 200.793 305.219 201.473C305.219 202.027 305.102 202.535 304.867 202.996C304.641 203.457 304.309 203.855 303.871 204.191C303.441 204.52 302.926 204.777 302.324 204.965C301.73 205.145 301.062 205.234 300.32 205.234C299.203 205.234 298.258 205.035 297.484 204.637C296.711 204.238 296.125 203.723 295.727 203.09C295.328 202.457 295.129 201.789 295.129 201.086H297.309C297.34 201.68 297.512 202.152 297.824 202.504C298.137 202.848 298.52 203.094 298.973 203.242C299.426 203.383 299.875 203.453 300.32 203.453C300.914 203.453 301.41 203.375 301.809 203.219C302.215 203.062 302.523 202.848 302.734 202.574C302.945 202.301 303.051 201.988 303.051 201.637ZM322.012 202.539V187H324.191V205H322.199L322.012 202.539ZM313.48 198.801V198.555C313.48 197.586 313.598 196.707 313.832 195.918C314.074 195.121 314.414 194.438 314.852 193.867C315.297 193.297 315.824 192.859 316.434 192.555C317.051 192.242 317.738 192.086 318.496 192.086C319.293 192.086 319.988 192.227 320.582 192.508C321.184 192.781 321.691 193.184 322.105 193.715C322.527 194.238 322.859 194.871 323.102 195.613C323.344 196.355 323.512 197.195 323.605 198.133V199.211C323.52 200.141 323.352 200.977 323.102 201.719C322.859 202.461 322.527 203.094 322.105 203.617C321.691 204.141 321.184 204.543 320.582 204.824C319.98 205.098 319.277 205.234 318.473 205.234C317.73 205.234 317.051 205.074 316.434 204.754C315.824 204.434 315.297 203.984 314.852 203.406C314.414 202.828 314.074 202.148 313.832 201.367C313.598 200.578 313.48 199.723 313.48 198.801ZM315.66 198.555V198.801C315.66 199.434 315.723 200.027 315.848 200.582C315.98 201.137 316.184 201.625 316.457 202.047C316.73 202.469 317.078 202.801 317.5 203.043C317.922 203.277 318.426 203.395 319.012 203.395C319.73 203.395 320.32 203.242 320.781 202.938C321.25 202.633 321.625 202.23 321.906 201.73C322.188 201.23 322.406 200.688 322.562 200.102V197.277C322.469 196.848 322.332 196.434 322.152 196.035C321.98 195.629 321.754 195.27 321.473 194.957C321.199 194.637 320.859 194.383 320.453 194.195C320.055 194.008 319.582 193.914 319.035 193.914C318.441 193.914 317.93 194.039 317.5 194.289C317.078 194.531 316.73 194.867 316.457 195.297C316.184 195.719 315.98 196.211 315.848 196.773C315.723 197.328 315.66 197.922 315.66 198.555ZM326.992 198.801V198.531C326.992 197.617 327.125 196.77 327.391 195.988C327.656 195.199 328.039 194.516 328.539 193.938C329.039 193.352 329.645 192.898 330.355 192.578C331.066 192.25 331.863 192.086 332.746 192.086C333.637 192.086 334.438 192.25 335.148 192.578C335.867 192.898 336.477 193.352 336.977 193.938C337.484 194.516 337.871 195.199 338.137 195.988C338.402 196.77 338.535 197.617 338.535 198.531V198.801C338.535 199.715 338.402 200.562 338.137 201.344C337.871 202.125 337.484 202.809 336.977 203.395C336.477 203.973 335.871 204.426 335.16 204.754C334.457 205.074 333.66 205.234 332.77 205.234C331.879 205.234 331.078 205.074 330.367 204.754C329.656 204.426 329.047 203.973 328.539 203.395C328.039 202.809 327.656 202.125 327.391 201.344C327.125 200.562 326.992 199.715 326.992 198.801ZM329.16 198.531V198.801C329.16 199.434 329.234 200.031 329.383 200.594C329.531 201.148 329.754 201.641 330.051 202.07C330.355 202.5 330.734 202.84 331.188 203.09C331.641 203.332 332.168 203.453 332.77 203.453C333.363 203.453 333.883 203.332 334.328 203.09C334.781 202.84 335.156 202.5 335.453 202.07C335.75 201.641 335.973 201.148 336.121 200.594C336.277 200.031 336.355 199.434 336.355 198.801V198.531C336.355 197.906 336.277 197.316 336.121 196.762C335.973 196.199 335.746 195.703 335.441 195.273C335.145 194.836 334.77 194.492 334.316 194.242C333.871 193.992 333.348 193.867 332.746 193.867C332.152 193.867 331.629 193.992 331.176 194.242C330.73 194.492 330.355 194.836 330.051 195.273C329.754 195.703 329.531 196.199 329.383 196.762C329.234 197.316 329.16 197.906 329.16 198.531ZM348.637 201.637C348.637 201.324 348.566 201.035 348.426 200.77C348.293 200.496 348.016 200.25 347.594 200.031C347.18 199.805 346.555 199.609 345.719 199.445C345.016 199.297 344.379 199.121 343.809 198.918C343.246 198.715 342.766 198.469 342.367 198.18C341.977 197.891 341.676 197.551 341.465 197.16C341.254 196.77 341.148 196.312 341.148 195.789C341.148 195.289 341.258 194.816 341.477 194.371C341.703 193.926 342.02 193.531 342.426 193.188C342.84 192.844 343.336 192.574 343.914 192.379C344.492 192.184 345.137 192.086 345.848 192.086C346.863 192.086 347.73 192.266 348.449 192.625C349.168 192.984 349.719 193.465 350.102 194.066C350.484 194.66 350.676 195.32 350.676 196.047H348.508C348.508 195.695 348.402 195.355 348.191 195.027C347.988 194.691 347.688 194.414 347.289 194.195C346.898 193.977 346.418 193.867 345.848 193.867C345.246 193.867 344.758 193.961 344.383 194.148C344.016 194.328 343.746 194.559 343.574 194.84C343.41 195.121 343.328 195.418 343.328 195.73C343.328 195.965 343.367 196.176 343.445 196.363C343.531 196.543 343.68 196.711 343.891 196.867C344.102 197.016 344.398 197.156 344.781 197.289C345.164 197.422 345.652 197.555 346.246 197.688C347.285 197.922 348.141 198.203 348.812 198.531C349.484 198.859 349.984 199.262 350.312 199.738C350.641 200.215 350.805 200.793 350.805 201.473C350.805 202.027 350.688 202.535 350.453 202.996C350.227 203.457 349.895 203.855 349.457 204.191C349.027 204.52 348.512 204.777 347.91 204.965C347.316 205.145 346.648 205.234 345.906 205.234C344.789 205.234 343.844 205.035 343.07 204.637C342.297 204.238 341.711 203.723 341.312 203.09C340.914 202.457 340.715 201.789 340.715 201.086H342.895C342.926 201.68 343.098 202.152 343.41 202.504C343.723 202.848 344.105 203.094 344.559 203.242C345.012 203.383 345.461 203.453 345.906 203.453C346.5 203.453 346.996 203.375 347.395 203.219C347.801 203.062 348.109 202.848 348.32 202.574C348.531 202.301 348.637 201.988 348.637 201.637ZM359.031 198.801V198.531C359.031 197.617 359.164 196.77 359.43 195.988C359.695 195.199 360.078 194.516 360.578 193.938C361.078 193.352 361.684 192.898 362.395 192.578C363.105 192.25 363.902 192.086 364.785 192.086C365.676 192.086 366.477 192.25 367.188 192.578C367.906 192.898 368.516 193.352 369.016 193.938C369.523 194.516 369.91 195.199 370.176 195.988C370.441 196.77 370.574 197.617 370.574 198.531V198.801C370.574 199.715 370.441 200.562 370.176 201.344C369.91 202.125 369.523 202.809 369.016 203.395C368.516 203.973 367.91 204.426 367.199 204.754C366.496 205.074 365.699 205.234 364.809 205.234C363.918 205.234 363.117 205.074 362.406 204.754C361.695 204.426 361.086 203.973 360.578 203.395C360.078 202.809 359.695 202.125 359.43 201.344C359.164 200.562 359.031 199.715 359.031 198.801ZM361.199 198.531V198.801C361.199 199.434 361.273 200.031 361.422 200.594C361.57 201.148 361.793 201.641 362.09 202.07C362.395 202.5 362.773 202.84 363.227 203.09C363.68 203.332 364.207 203.453 364.809 203.453C365.402 203.453 365.922 203.332 366.367 203.09C366.82 202.84 367.195 202.5 367.492 202.07C367.789 201.641 368.012 201.148 368.16 200.594C368.316 200.031 368.395 199.434 368.395 198.801V198.531C368.395 197.906 368.316 197.316 368.16 196.762C368.012 196.199 367.785 195.703 367.48 195.273C367.184 194.836 366.809 194.492 366.355 194.242C365.91 193.992 365.387 193.867 364.785 193.867C364.191 193.867 363.668 193.992 363.215 194.242C362.77 194.492 362.395 194.836 362.09 195.273C361.793 195.703 361.57 196.199 361.422 196.762C361.273 197.316 361.199 197.906 361.199 198.531ZM373.281 187H375.461V202.539L375.273 205H373.281V187ZM384.027 198.555V198.801C384.027 199.723 383.918 200.578 383.699 201.367C383.48 202.148 383.16 202.828 382.738 203.406C382.316 203.984 381.801 204.434 381.191 204.754C380.582 205.074 379.883 205.234 379.094 205.234C378.289 205.234 377.582 205.098 376.973 204.824C376.371 204.543 375.863 204.141 375.449 203.617C375.035 203.094 374.703 202.461 374.453 201.719C374.211 200.977 374.043 200.141 373.949 199.211V198.133C374.043 197.195 374.211 196.355 374.453 195.613C374.703 194.871 375.035 194.238 375.449 193.715C375.863 193.184 376.371 192.781 376.973 192.508C377.574 192.227 378.273 192.086 379.07 192.086C379.867 192.086 380.574 192.242 381.191 192.555C381.809 192.859 382.324 193.297 382.738 193.867C383.16 194.438 383.48 195.121 383.699 195.918C383.918 196.707 384.027 197.586 384.027 198.555ZM381.848 198.801V198.555C381.848 197.922 381.789 197.328 381.672 196.773C381.555 196.211 381.367 195.719 381.109 195.297C380.852 194.867 380.512 194.531 380.09 194.289C379.668 194.039 379.148 193.914 378.531 193.914C377.984 193.914 377.508 194.008 377.102 194.195C376.703 194.383 376.363 194.637 376.082 194.957C375.801 195.27 375.57 195.629 375.391 196.035C375.219 196.434 375.09 196.848 375.004 197.277V200.102C375.129 200.648 375.332 201.176 375.613 201.684C375.902 202.184 376.285 202.594 376.762 202.914C377.246 203.234 377.844 203.395 378.555 203.395C379.141 203.395 379.641 203.277 380.055 203.043C380.477 202.801 380.816 202.469 381.074 202.047C381.34 201.625 381.535 201.137 381.66 200.582C381.785 200.027 381.848 199.434 381.848 198.801ZM386.828 192.32H389.008V206.512C389.008 207.285 388.883 207.941 388.633 208.48C388.391 209.02 388.023 209.426 387.531 209.699C387.047 209.98 386.434 210.121 385.691 210.121C385.496 210.121 385.27 210.102 385.012 210.062C384.746 210.023 384.523 209.977 384.344 209.922L384.355 208.176C384.504 208.207 384.672 208.23 384.859 208.246C385.047 208.27 385.211 208.281 385.352 208.281C385.672 208.281 385.941 208.223 386.16 208.105C386.379 207.988 386.543 207.801 386.652 207.543C386.77 207.285 386.828 206.941 386.828 206.512V192.32ZM386.605 188.957C386.605 188.605 386.715 188.309 386.934 188.066C387.152 187.824 387.469 187.703 387.883 187.703C388.305 187.703 388.625 187.824 388.844 188.066C389.062 188.309 389.172 188.605 389.172 188.957C389.172 189.293 389.062 189.582 388.844 189.824C388.625 190.059 388.305 190.176 387.883 190.176C387.469 190.176 387.152 190.059 386.934 189.824C386.715 189.582 386.605 189.293 386.605 188.957ZM397.773 205.234C396.891 205.234 396.09 205.086 395.371 204.789C394.66 204.484 394.047 204.059 393.531 203.512C393.023 202.965 392.633 202.316 392.359 201.566C392.086 200.816 391.949 199.996 391.949 199.105V198.613C391.949 197.582 392.102 196.664 392.406 195.859C392.711 195.047 393.125 194.359 393.648 193.797C394.172 193.234 394.766 192.809 395.43 192.52C396.094 192.23 396.781 192.086 397.492 192.086C398.398 192.086 399.18 192.242 399.836 192.555C400.5 192.867 401.043 193.305 401.465 193.867C401.887 194.422 402.199 195.078 402.402 195.836C402.605 196.586 402.707 197.406 402.707 198.297V199.27H393.238V197.5H400.539V197.336C400.508 196.773 400.391 196.227 400.188 195.695C399.992 195.164 399.68 194.727 399.25 194.383C398.82 194.039 398.234 193.867 397.492 193.867C397 193.867 396.547 193.973 396.133 194.184C395.719 194.387 395.363 194.691 395.066 195.098C394.77 195.504 394.539 196 394.375 196.586C394.211 197.172 394.129 197.848 394.129 198.613V199.105C394.129 199.707 394.211 200.273 394.375 200.805C394.547 201.328 394.793 201.789 395.113 202.188C395.441 202.586 395.836 202.898 396.297 203.125C396.766 203.352 397.297 203.465 397.891 203.465C398.656 203.465 399.305 203.309 399.836 202.996C400.367 202.684 400.832 202.266 401.23 201.742L402.543 202.785C402.27 203.199 401.922 203.594 401.5 203.969C401.078 204.344 400.559 204.648 399.941 204.883C399.332 205.117 398.609 205.234 397.773 205.234ZM410.547 192.32V193.984H403.691V192.32H410.547ZM406.012 189.238H408.18V201.859C408.18 202.289 408.246 202.613 408.379 202.832C408.512 203.051 408.684 203.195 408.895 203.266C409.105 203.336 409.332 203.371 409.574 203.371C409.754 203.371 409.941 203.355 410.137 203.324C410.34 203.285 410.492 203.254 410.594 203.23L410.605 205C410.434 205.055 410.207 205.105 409.926 205.152C409.652 205.207 409.32 205.234 408.93 205.234C408.398 205.234 407.91 205.129 407.465 204.918C407.02 204.707 406.664 204.355 406.398 203.863C406.141 203.363 406.012 202.691 406.012 201.848V189.238ZM415.445 192.32V205H413.266V192.32H415.445ZM413.102 188.957C413.102 188.605 413.207 188.309 413.418 188.066C413.637 187.824 413.957 187.703 414.379 187.703C414.793 187.703 415.109 187.824 415.328 188.066C415.555 188.309 415.668 188.605 415.668 188.957C415.668 189.293 415.555 189.582 415.328 189.824C415.109 190.059 414.793 190.176 414.379 190.176C413.957 190.176 413.637 190.059 413.418 189.824C413.207 189.582 413.102 189.293 413.102 188.957ZM422.781 203.043L426.25 192.32H428.465L423.906 205H422.453L422.781 203.043ZM419.887 192.32L423.461 203.102L423.707 205H422.254L417.66 192.32H419.887ZM429.789 198.801V198.531C429.789 197.617 429.922 196.77 430.188 195.988C430.453 195.199 430.836 194.516 431.336 193.938C431.836 193.352 432.441 192.898 433.152 192.578C433.863 192.25 434.66 192.086 435.543 192.086C436.434 192.086 437.234 192.25 437.945 192.578C438.664 192.898 439.273 193.352 439.773 193.938C440.281 194.516 440.668 195.199 440.934 195.988C441.199 196.77 441.332 197.617 441.332 198.531V198.801C441.332 199.715 441.199 200.562 440.934 201.344C440.668 202.125 440.281 202.809 439.773 203.395C439.273 203.973 438.668 204.426 437.957 204.754C437.254 205.074 436.457 205.234 435.566 205.234C434.676 205.234 433.875 205.074 433.164 204.754C432.453 204.426 431.844 203.973 431.336 203.395C430.836 202.809 430.453 202.125 430.188 201.344C429.922 200.562 429.789 199.715 429.789 198.801ZM431.957 198.531V198.801C431.957 199.434 432.031 200.031 432.18 200.594C432.328 201.148 432.551 201.641 432.848 202.07C433.152 202.5 433.531 202.84 433.984 203.09C434.438 203.332 434.965 203.453 435.566 203.453C436.16 203.453 436.68 203.332 437.125 203.09C437.578 202.84 437.953 202.5 438.25 202.07C438.547 201.641 438.77 201.148 438.918 200.594C439.074 200.031 439.152 199.434 439.152 198.801V198.531C439.152 197.906 439.074 197.316 438.918 196.762C438.77 196.199 438.543 195.703 438.238 195.273C437.941 194.836 437.566 194.492 437.113 194.242C436.668 193.992 436.145 193.867 435.543 193.867C434.949 193.867 434.426 193.992 433.973 194.242C433.527 194.492 433.152 194.836 432.848 195.273C432.551 195.703 432.328 196.199 432.18 196.762C432.031 197.316 431.957 197.906 431.957 198.531ZM451.434 201.637C451.434 201.324 451.363 201.035 451.223 200.77C451.09 200.496 450.812 200.25 450.391 200.031C449.977 199.805 449.352 199.609 448.516 199.445C447.812 199.297 447.176 199.121 446.605 198.918C446.043 198.715 445.562 198.469 445.164 198.18C444.773 197.891 444.473 197.551 444.262 197.16C444.051 196.77 443.945 196.312 443.945 195.789C443.945 195.289 444.055 194.816 444.273 194.371C444.5 193.926 444.816 193.531 445.223 193.188C445.637 192.844 446.133 192.574 446.711 192.379C447.289 192.184 447.934 192.086 448.645 192.086C449.66 192.086 450.527 192.266 451.246 192.625C451.965 192.984 452.516 193.465 452.898 194.066C453.281 194.66 453.473 195.32 453.473 196.047H451.305C451.305 195.695 451.199 195.355 450.988 195.027C450.785 194.691 450.484 194.414 450.086 194.195C449.695 193.977 449.215 193.867 448.645 193.867C448.043 193.867 447.555 193.961 447.18 194.148C446.812 194.328 446.543 194.559 446.371 194.84C446.207 195.121 446.125 195.418 446.125 195.73C446.125 195.965 446.164 196.176 446.242 196.363C446.328 196.543 446.477 196.711 446.688 196.867C446.898 197.016 447.195 197.156 447.578 197.289C447.961 197.422 448.449 197.555 449.043 197.688C450.082 197.922 450.938 198.203 451.609 198.531C452.281 198.859 452.781 199.262 453.109 199.738C453.438 200.215 453.602 200.793 453.602 201.473C453.602 202.027 453.484 202.535 453.25 202.996C453.023 203.457 452.691 203.855 452.254 204.191C451.824 204.52 451.309 204.777 450.707 204.965C450.113 205.145 449.445 205.234 448.703 205.234C447.586 205.234 446.641 205.035 445.867 204.637C445.094 204.238 444.508 203.723 444.109 203.09C443.711 202.457 443.512 201.789 443.512 201.086H445.691C445.723 201.68 445.895 202.152 446.207 202.504C446.52 202.848 446.902 203.094 447.355 203.242C447.809 203.383 448.258 203.453 448.703 203.453C449.297 203.453 449.793 203.375 450.191 203.219C450.598 203.062 450.906 202.848 451.117 202.574C451.328 202.301 451.434 201.988 451.434 201.637ZM76.6445 230.539V215H78.8242V233H76.832L76.6445 230.539ZM68.1133 226.801V226.555C68.1133 225.586 68.2305 224.707 68.4648 223.918C68.707 223.121 69.0469 222.438 69.4844 221.867C69.9297 221.297 70.457 220.859 71.0664 220.555C71.6836 220.242 72.3711 220.086 73.1289 220.086C73.9258 220.086 74.6211 220.227 75.2148 220.508C75.8164 220.781 76.3242 221.184 76.7383 221.715C77.1602 222.238 77.4922 222.871 77.7344 223.613C77.9766 224.355 78.1445 225.195 78.2383 226.133V227.211C78.1523 228.141 77.9844 228.977 77.7344 229.719C77.4922 230.461 77.1602 231.094 76.7383 231.617C76.3242 232.141 75.8164 232.543 75.2148 232.824C74.6133 233.098 73.9102 233.234 73.1055 233.234C72.3633 233.234 71.6836 233.074 71.0664 232.754C70.457 232.434 69.9297 231.984 69.4844 231.406C69.0469 230.828 68.707 230.148 68.4648 229.367C68.2305 228.578 68.1133 227.723 68.1133 226.801ZM70.293 226.555V226.801C70.293 227.434 70.3555 228.027 70.4805 228.582C70.6133 229.137 70.8164 229.625 71.0898 230.047C71.3633 230.469 71.7109 230.801 72.1328 231.043C72.5547 231.277 73.0586 231.395 73.6445 231.395C74.3633 231.395 74.9531 231.242 75.4141 230.938C75.8828 230.633 76.2578 230.23 76.5391 229.73C76.8203 229.23 77.0391 228.688 77.1953 228.102V225.277C77.1016 224.848 76.9648 224.434 76.7852 224.035C76.6133 223.629 76.3867 223.27 76.1055 222.957C75.832 222.637 75.4922 222.383 75.0859 222.195C74.6875 222.008 74.2148 221.914 73.668 221.914C73.0742 221.914 72.5625 222.039 72.1328 222.289C71.7109 222.531 71.3633 222.867 71.0898 223.297C70.8164 223.719 70.6133 224.211 70.4805 224.773C70.3555 225.328 70.293 225.922 70.293 226.555ZM87.4609 233.234C86.5781 233.234 85.7773 233.086 85.0586 232.789C84.3477 232.484 83.7344 232.059 83.2188 231.512C82.7109 230.965 82.3203 230.316 82.0469 229.566C81.7734 228.816 81.6367 227.996 81.6367 227.105V226.613C81.6367 225.582 81.7891 224.664 82.0938 223.859C82.3984 223.047 82.8125 222.359 83.3359 221.797C83.8594 221.234 84.4531 220.809 85.1172 220.52C85.7812 220.23 86.4688 220.086 87.1797 220.086C88.0859 220.086 88.8672 220.242 89.5234 220.555C90.1875 220.867 90.7305 221.305 91.1523 221.867C91.5742 222.422 91.8867 223.078 92.0898 223.836C92.293 224.586 92.3945 225.406 92.3945 226.297V227.27H82.9258V225.5H90.2266V225.336C90.1953 224.773 90.0781 224.227 89.875 223.695C89.6797 223.164 89.3672 222.727 88.9375 222.383C88.5078 222.039 87.9219 221.867 87.1797 221.867C86.6875 221.867 86.2344 221.973 85.8203 222.184C85.4062 222.387 85.0508 222.691 84.7539 223.098C84.457 223.504 84.2266 224 84.0625 224.586C83.8984 225.172 83.8164 225.848 83.8164 226.613V227.105C83.8164 227.707 83.8984 228.273 84.0625 228.805C84.2344 229.328 84.4805 229.789 84.8008 230.188C85.1289 230.586 85.5234 230.898 85.9844 231.125C86.4531 231.352 86.9844 231.465 87.5781 231.465C88.3438 231.465 88.9922 231.309 89.5234 230.996C90.0547 230.684 90.5195 230.266 90.918 229.742L92.2305 230.785C91.957 231.199 91.6094 231.594 91.1875 231.969C90.7656 232.344 90.2461 232.648 89.6289 232.883C89.0195 233.117 88.2969 233.234 87.4609 233.234ZM108.871 230.539V215H111.051V233H109.059L108.871 230.539ZM100.34 226.801V226.555C100.34 225.586 100.457 224.707 100.691 223.918C100.934 223.121 101.273 222.438 101.711 221.867C102.156 221.297 102.684 220.859 103.293 220.555C103.91 220.242 104.598 220.086 105.355 220.086C106.152 220.086 106.848 220.227 107.441 220.508C108.043 220.781 108.551 221.184 108.965 221.715C109.387 222.238 109.719 222.871 109.961 223.613C110.203 224.355 110.371 225.195 110.465 226.133V227.211C110.379 228.141 110.211 228.977 109.961 229.719C109.719 230.461 109.387 231.094 108.965 231.617C108.551 232.141 108.043 232.543 107.441 232.824C106.84 233.098 106.137 233.234 105.332 233.234C104.59 233.234 103.91 233.074 103.293 232.754C102.684 232.434 102.156 231.984 101.711 231.406C101.273 230.828 100.934 230.148 100.691 229.367C100.457 228.578 100.34 227.723 100.34 226.801ZM102.52 226.555V226.801C102.52 227.434 102.582 228.027 102.707 228.582C102.84 229.137 103.043 229.625 103.316 230.047C103.59 230.469 103.938 230.801 104.359 231.043C104.781 231.277 105.285 231.395 105.871 231.395C106.59 231.395 107.18 231.242 107.641 230.938C108.109 230.633 108.484 230.23 108.766 229.73C109.047 229.23 109.266 228.688 109.422 228.102V225.277C109.328 224.848 109.191 224.434 109.012 224.035C108.84 223.629 108.613 223.27 108.332 222.957C108.059 222.637 107.719 222.383 107.312 222.195C106.914 222.008 106.441 221.914 105.895 221.914C105.301 221.914 104.789 222.039 104.359 222.289C103.938 222.531 103.59 222.867 103.316 223.297C103.043 223.719 102.84 224.211 102.707 224.773C102.582 225.328 102.52 225.922 102.52 226.555ZM119.688 233.234C118.805 233.234 118.004 233.086 117.285 232.789C116.574 232.484 115.961 232.059 115.445 231.512C114.938 230.965 114.547 230.316 114.273 229.566C114 228.816 113.863 227.996 113.863 227.105V226.613C113.863 225.582 114.016 224.664 114.32 223.859C114.625 223.047 115.039 222.359 115.562 221.797C116.086 221.234 116.68 220.809 117.344 220.52C118.008 220.23 118.695 220.086 119.406 220.086C120.312 220.086 121.094 220.242 121.75 220.555C122.414 220.867 122.957 221.305 123.379 221.867C123.801 222.422 124.113 223.078 124.316 223.836C124.52 224.586 124.621 225.406 124.621 226.297V227.27H115.152V225.5H122.453V225.336C122.422 224.773 122.305 224.227 122.102 223.695C121.906 223.164 121.594 222.727 121.164 222.383C120.734 222.039 120.148 221.867 119.406 221.867C118.914 221.867 118.461 221.973 118.047 222.184C117.633 222.387 117.277 222.691 116.98 223.098C116.684 223.504 116.453 224 116.289 224.586C116.125 225.172 116.043 225.848 116.043 226.613V227.105C116.043 227.707 116.125 228.273 116.289 228.805C116.461 229.328 116.707 229.789 117.027 230.188C117.355 230.586 117.75 230.898 118.211 231.125C118.68 231.352 119.211 231.465 119.805 231.465C120.57 231.465 121.219 231.309 121.75 230.996C122.281 230.684 122.746 230.266 123.145 229.742L124.457 230.785C124.184 231.199 123.836 231.594 123.414 231.969C122.992 232.344 122.473 232.648 121.855 232.883C121.246 233.117 120.523 233.234 119.688 233.234ZM134.535 229.637C134.535 229.324 134.465 229.035 134.324 228.77C134.191 228.496 133.914 228.25 133.492 228.031C133.078 227.805 132.453 227.609 131.617 227.445C130.914 227.297 130.277 227.121 129.707 226.918C129.145 226.715 128.664 226.469 128.266 226.18C127.875 225.891 127.574 225.551 127.363 225.16C127.152 224.77 127.047 224.312 127.047 223.789C127.047 223.289 127.156 222.816 127.375 222.371C127.602 221.926 127.918 221.531 128.324 221.188C128.738 220.844 129.234 220.574 129.812 220.379C130.391 220.184 131.035 220.086 131.746 220.086C132.762 220.086 133.629 220.266 134.348 220.625C135.066 220.984 135.617 221.465 136 222.066C136.383 222.66 136.574 223.32 136.574 224.047H134.406C134.406 223.695 134.301 223.355 134.09 223.027C133.887 222.691 133.586 222.414 133.188 222.195C132.797 221.977 132.316 221.867 131.746 221.867C131.145 221.867 130.656 221.961 130.281 222.148C129.914 222.328 129.645 222.559 129.473 222.84C129.309 223.121 129.227 223.418 129.227 223.73C129.227 223.965 129.266 224.176 129.344 224.363C129.43 224.543 129.578 224.711 129.789 224.867C130 225.016 130.297 225.156 130.68 225.289C131.062 225.422 131.551 225.555 132.145 225.688C133.184 225.922 134.039 226.203 134.711 226.531C135.383 226.859 135.883 227.262 136.211 227.738C136.539 228.215 136.703 228.793 136.703 229.473C136.703 230.027 136.586 230.535 136.352 230.996C136.125 231.457 135.793 231.855 135.355 232.191C134.926 232.52 134.41 232.777 133.809 232.965C133.215 233.145 132.547 233.234 131.805 233.234C130.688 233.234 129.742 233.035 128.969 232.637C128.195 232.238 127.609 231.723 127.211 231.09C126.812 230.457 126.613 229.789 126.613 229.086H128.793C128.824 229.68 128.996 230.152 129.309 230.504C129.621 230.848 130.004 231.094 130.457 231.242C130.91 231.383 131.359 231.453 131.805 231.453C132.398 231.453 132.895 231.375 133.293 231.219C133.699 231.062 134.008 230.848 134.219 230.574C134.43 230.301 134.535 229.988 134.535 229.637ZM144.812 233.234C143.93 233.234 143.129 233.086 142.41 232.789C141.699 232.484 141.086 232.059 140.57 231.512C140.062 230.965 139.672 230.316 139.398 229.566C139.125 228.816 138.988 227.996 138.988 227.105V226.613C138.988 225.582 139.141 224.664 139.445 223.859C139.75 223.047 140.164 222.359 140.688 221.797C141.211 221.234 141.805 220.809 142.469 220.52C143.133 220.23 143.82 220.086 144.531 220.086C145.438 220.086 146.219 220.242 146.875 220.555C147.539 220.867 148.082 221.305 148.504 221.867C148.926 222.422 149.238 223.078 149.441 223.836C149.645 224.586 149.746 225.406 149.746 226.297V227.27H140.277V225.5H147.578V225.336C147.547 224.773 147.43 224.227 147.227 223.695C147.031 223.164 146.719 222.727 146.289 222.383C145.859 222.039 145.273 221.867 144.531 221.867C144.039 221.867 143.586 221.973 143.172 222.184C142.758 222.387 142.402 222.691 142.105 223.098C141.809 223.504 141.578 224 141.414 224.586C141.25 225.172 141.168 225.848 141.168 226.613V227.105C141.168 227.707 141.25 228.273 141.414 228.805C141.586 229.328 141.832 229.789 142.152 230.188C142.48 230.586 142.875 230.898 143.336 231.125C143.805 231.352 144.336 231.465 144.93 231.465C145.695 231.465 146.344 231.309 146.875 230.996C147.406 230.684 147.871 230.266 148.27 229.742L149.582 230.785C149.309 231.199 148.961 231.594 148.539 231.969C148.117 232.344 147.598 232.648 146.98 232.883C146.371 233.117 145.648 233.234 144.812 233.234ZM154.445 223.027V233H152.277V220.32H154.328L154.445 223.027ZM153.93 226.18L153.027 226.145C153.035 225.277 153.164 224.477 153.414 223.742C153.664 223 154.016 222.355 154.469 221.809C154.922 221.262 155.461 220.84 156.086 220.543C156.719 220.238 157.418 220.086 158.184 220.086C158.809 220.086 159.371 220.172 159.871 220.344C160.371 220.508 160.797 220.773 161.148 221.141C161.508 221.508 161.781 221.984 161.969 222.57C162.156 223.148 162.25 223.855 162.25 224.691V233H160.07V224.668C160.07 224.004 159.973 223.473 159.777 223.074C159.582 222.668 159.297 222.375 158.922 222.195C158.547 222.008 158.086 221.914 157.539 221.914C157 221.914 156.508 222.027 156.062 222.254C155.625 222.48 155.246 222.793 154.926 223.191C154.613 223.59 154.367 224.047 154.188 224.562C154.016 225.07 153.93 225.609 153.93 226.18ZM169.398 231.043L172.867 220.32H175.082L170.523 233H169.07L169.398 231.043ZM166.504 220.32L170.078 231.102L170.324 233H168.871L164.277 220.32H166.504ZM176.406 226.801V226.531C176.406 225.617 176.539 224.77 176.805 223.988C177.07 223.199 177.453 222.516 177.953 221.938C178.453 221.352 179.059 220.898 179.77 220.578C180.48 220.25 181.277 220.086 182.16 220.086C183.051 220.086 183.852 220.25 184.562 220.578C185.281 220.898 185.891 221.352 186.391 221.938C186.898 222.516 187.285 223.199 187.551 223.988C187.816 224.77 187.949 225.617 187.949 226.531V226.801C187.949 227.715 187.816 228.562 187.551 229.344C187.285 230.125 186.898 230.809 186.391 231.395C185.891 231.973 185.285 232.426 184.574 232.754C183.871 233.074 183.074 233.234 182.184 233.234C181.293 233.234 180.492 233.074 179.781 232.754C179.07 232.426 178.461 231.973 177.953 231.395C177.453 230.809 177.07 230.125 176.805 229.344C176.539 228.562 176.406 227.715 176.406 226.801ZM178.574 226.531V226.801C178.574 227.434 178.648 228.031 178.797 228.594C178.945 229.148 179.168 229.641 179.465 230.07C179.77 230.5 180.148 230.84 180.602 231.09C181.055 231.332 181.582 231.453 182.184 231.453C182.777 231.453 183.297 231.332 183.742 231.09C184.195 230.84 184.57 230.5 184.867 230.07C185.164 229.641 185.387 229.148 185.535 228.594C185.691 228.031 185.77 227.434 185.77 226.801V226.531C185.77 225.906 185.691 225.316 185.535 224.762C185.387 224.199 185.16 223.703 184.855 223.273C184.559 222.836 184.184 222.492 183.73 222.242C183.285 221.992 182.762 221.867 182.16 221.867C181.566 221.867 181.043 221.992 180.59 222.242C180.145 222.492 179.77 222.836 179.465 223.273C179.168 223.703 178.945 224.199 178.797 224.762C178.648 225.316 178.574 225.906 178.574 226.531ZM193.023 215V233H190.844V215H193.023ZM200.359 231.043L203.828 220.32H206.043L201.484 233H200.031L200.359 231.043ZM197.465 220.32L201.039 231.102L201.285 233H199.832L195.238 220.32H197.465ZM210.484 220.32V233H208.305V220.32H210.484ZM208.141 216.957C208.141 216.605 208.246 216.309 208.457 216.066C208.676 215.824 208.996 215.703 209.418 215.703C209.832 215.703 210.148 215.824 210.367 216.066C210.594 216.309 210.707 216.605 210.707 216.957C210.707 217.293 210.594 217.582 210.367 217.824C210.148 218.059 209.832 218.176 209.418 218.176C208.996 218.176 208.676 218.059 208.457 217.824C208.246 217.582 208.141 217.293 208.141 216.957ZM216.121 222.84V233H213.941V220.32H216.004L216.121 222.84ZM215.676 226.18L214.668 226.145C214.676 225.277 214.789 224.477 215.008 223.742C215.227 223 215.551 222.355 215.98 221.809C216.41 221.262 216.945 220.84 217.586 220.543C218.227 220.238 218.969 220.086 219.812 220.086C220.406 220.086 220.953 220.172 221.453 220.344C221.953 220.508 222.387 220.77 222.754 221.129C223.121 221.488 223.406 221.949 223.609 222.512C223.812 223.074 223.914 223.754 223.914 224.551V233H221.746V224.656C221.746 223.992 221.633 223.461 221.406 223.062C221.188 222.664 220.875 222.375 220.469 222.195C220.062 222.008 219.586 221.914 219.039 221.914C218.398 221.914 217.863 222.027 217.434 222.254C217.004 222.48 216.66 222.793 216.402 223.191C216.145 223.59 215.957 224.047 215.84 224.562C215.73 225.07 215.676 225.609 215.676 226.18ZM223.891 224.984L222.438 225.43C222.445 224.734 222.559 224.066 222.777 223.426C223.004 222.785 223.328 222.215 223.75 221.715C224.18 221.215 224.707 220.82 225.332 220.531C225.957 220.234 226.672 220.086 227.477 220.086C228.156 220.086 228.758 220.176 229.281 220.355C229.812 220.535 230.258 220.812 230.617 221.188C230.984 221.555 231.262 222.027 231.449 222.605C231.637 223.184 231.73 223.871 231.73 224.668V233H229.551V224.645C229.551 223.934 229.438 223.383 229.211 222.992C228.992 222.594 228.68 222.316 228.273 222.16C227.875 221.996 227.398 221.914 226.844 221.914C226.367 221.914 225.945 221.996 225.578 222.16C225.211 222.324 224.902 222.551 224.652 222.84C224.402 223.121 224.211 223.445 224.078 223.812C223.953 224.18 223.891 224.57 223.891 224.984ZM240.273 233.234C239.391 233.234 238.59 233.086 237.871 232.789C237.16 232.484 236.547 232.059 236.031 231.512C235.523 230.965 235.133 230.316 234.859 229.566C234.586 228.816 234.449 227.996 234.449 227.105V226.613C234.449 225.582 234.602 224.664 234.906 223.859C235.211 223.047 235.625 222.359 236.148 221.797C236.672 221.234 237.266 220.809 237.93 220.52C238.594 220.23 239.281 220.086 239.992 220.086C240.898 220.086 241.68 220.242 242.336 220.555C243 220.867 243.543 221.305 243.965 221.867C244.387 222.422 244.699 223.078 244.902 223.836C245.105 224.586 245.207 225.406 245.207 226.297V227.27H235.738V225.5H243.039V225.336C243.008 224.773 242.891 224.227 242.688 223.695C242.492 223.164 242.18 222.727 241.75 222.383C241.32 222.039 240.734 221.867 239.992 221.867C239.5 221.867 239.047 221.973 238.633 222.184C238.219 222.387 237.863 222.691 237.566 223.098C237.27 223.504 237.039 224 236.875 224.586C236.711 225.172 236.629 225.848 236.629 226.613V227.105C236.629 227.707 236.711 228.273 236.875 228.805C237.047 229.328 237.293 229.789 237.613 230.188C237.941 230.586 238.336 230.898 238.797 231.125C239.266 231.352 239.797 231.465 240.391 231.465C241.156 231.465 241.805 231.309 242.336 230.996C242.867 230.684 243.332 230.266 243.73 229.742L245.043 230.785C244.77 231.199 244.422 231.594 244 231.969C243.578 232.344 243.059 232.648 242.441 232.883C241.832 233.117 241.109 233.234 240.273 233.234ZM249.906 223.027V233H247.738V220.32H249.789L249.906 223.027ZM249.391 226.18L248.488 226.145C248.496 225.277 248.625 224.477 248.875 223.742C249.125 223 249.477 222.355 249.93 221.809C250.383 221.262 250.922 220.84 251.547 220.543C252.18 220.238 252.879 220.086 253.645 220.086C254.27 220.086 254.832 220.172 255.332 220.344C255.832 220.508 256.258 220.773 256.609 221.141C256.969 221.508 257.242 221.984 257.43 222.57C257.617 223.148 257.711 223.855 257.711 224.691V233H255.531V224.668C255.531 224.004 255.434 223.473 255.238 223.074C255.043 222.668 254.758 222.375 254.383 222.195C254.008 222.008 253.547 221.914 253 221.914C252.461 221.914 251.969 222.027 251.523 222.254C251.086 222.48 250.707 222.793 250.387 223.191C250.074 223.59 249.828 224.047 249.648 224.562C249.477 225.07 249.391 225.609 249.391 226.18ZM266.312 220.32V221.984H259.457V220.32H266.312ZM261.777 217.238H263.945V229.859C263.945 230.289 264.012 230.613 264.145 230.832C264.277 231.051 264.449 231.195 264.66 231.266C264.871 231.336 265.098 231.371 265.34 231.371C265.52 231.371 265.707 231.355 265.902 231.324C266.105 231.285 266.258 231.254 266.359 231.23L266.371 233C266.199 233.055 265.973 233.105 265.691 233.152C265.418 233.207 265.086 233.234 264.695 233.234C264.164 233.234 263.676 233.129 263.23 232.918C262.785 232.707 262.43 232.355 262.164 231.863C261.906 231.363 261.777 230.691 261.777 229.848V217.238ZM268.047 226.801V226.531C268.047 225.617 268.18 224.77 268.445 223.988C268.711 223.199 269.094 222.516 269.594 221.938C270.094 221.352 270.699 220.898 271.41 220.578C272.121 220.25 272.918 220.086 273.801 220.086C274.691 220.086 275.492 220.25 276.203 220.578C276.922 220.898 277.531 221.352 278.031 221.938C278.539 222.516 278.926 223.199 279.191 223.988C279.457 224.77 279.59 225.617 279.59 226.531V226.801C279.59 227.715 279.457 228.562 279.191 229.344C278.926 230.125 278.539 230.809 278.031 231.395C277.531 231.973 276.926 232.426 276.215 232.754C275.512 233.074 274.715 233.234 273.824 233.234C272.934 233.234 272.133 233.074 271.422 232.754C270.711 232.426 270.102 231.973 269.594 231.395C269.094 230.809 268.711 230.125 268.445 229.344C268.18 228.562 268.047 227.715 268.047 226.801ZM270.215 226.531V226.801C270.215 227.434 270.289 228.031 270.438 228.594C270.586 229.148 270.809 229.641 271.105 230.07C271.41 230.5 271.789 230.84 272.242 231.09C272.695 231.332 273.223 231.453 273.824 231.453C274.418 231.453 274.938 231.332 275.383 231.09C275.836 230.84 276.211 230.5 276.508 230.07C276.805 229.641 277.027 229.148 277.176 228.594C277.332 228.031 277.41 227.434 277.41 226.801V226.531C277.41 225.906 277.332 225.316 277.176 224.762C277.027 224.199 276.801 223.703 276.496 223.273C276.199 222.836 275.824 222.492 275.371 222.242C274.926 221.992 274.402 221.867 273.801 221.867C273.207 221.867 272.684 221.992 272.23 222.242C271.785 222.492 271.41 222.836 271.105 223.273C270.809 223.703 270.586 224.199 270.438 224.762C270.289 225.316 270.215 225.906 270.215 226.531ZM295.645 229.637C295.645 229.324 295.574 229.035 295.434 228.77C295.301 228.496 295.023 228.25 294.602 228.031C294.188 227.805 293.562 227.609 292.727 227.445C292.023 227.297 291.387 227.121 290.816 226.918C290.254 226.715 289.773 226.469 289.375 226.18C288.984 225.891 288.684 225.551 288.473 225.16C288.262 224.77 288.156 224.312 288.156 223.789C288.156 223.289 288.266 222.816 288.484 222.371C288.711 221.926 289.027 221.531 289.434 221.188C289.848 220.844 290.344 220.574 290.922 220.379C291.5 220.184 292.145 220.086 292.855 220.086C293.871 220.086 294.738 220.266 295.457 220.625C296.176 220.984 296.727 221.465 297.109 222.066C297.492 222.66 297.684 223.32 297.684 224.047H295.516C295.516 223.695 295.41 223.355 295.199 223.027C294.996 222.691 294.695 222.414 294.297 222.195C293.906 221.977 293.426 221.867 292.855 221.867C292.254 221.867 291.766 221.961 291.391 222.148C291.023 222.328 290.754 222.559 290.582 222.84C290.418 223.121 290.336 223.418 290.336 223.73C290.336 223.965 290.375 224.176 290.453 224.363C290.539 224.543 290.688 224.711 290.898 224.867C291.109 225.016 291.406 225.156 291.789 225.289C292.172 225.422 292.66 225.555 293.254 225.688C294.293 225.922 295.148 226.203 295.82 226.531C296.492 226.859 296.992 227.262 297.32 227.738C297.648 228.215 297.812 228.793 297.812 229.473C297.812 230.027 297.695 230.535 297.461 230.996C297.234 231.457 296.902 231.855 296.465 232.191C296.035 232.52 295.52 232.777 294.918 232.965C294.324 233.145 293.656 233.234 292.914 233.234C291.797 233.234 290.852 233.035 290.078 232.637C289.305 232.238 288.719 231.723 288.32 231.09C287.922 230.457 287.723 229.789 287.723 229.086H289.902C289.934 229.68 290.105 230.152 290.418 230.504C290.73 230.848 291.113 231.094 291.566 231.242C292.02 231.383 292.469 231.453 292.914 231.453C293.508 231.453 294.004 231.375 294.402 231.219C294.809 231.062 295.117 230.848 295.328 230.574C295.539 230.301 295.645 229.988 295.645 229.637ZM308.418 230.07V220.32H310.598V233H308.523L308.418 230.07ZM308.828 227.398L309.73 227.375C309.73 228.219 309.641 229 309.461 229.719C309.289 230.43 309.008 231.047 308.617 231.57C308.227 232.094 307.715 232.504 307.082 232.801C306.449 233.09 305.68 233.234 304.773 233.234C304.156 233.234 303.59 233.145 303.074 232.965C302.566 232.785 302.129 232.508 301.762 232.133C301.395 231.758 301.109 231.27 300.906 230.668C300.711 230.066 300.613 229.344 300.613 228.5V220.32H302.781V228.523C302.781 229.094 302.844 229.566 302.969 229.941C303.102 230.309 303.277 230.602 303.496 230.82C303.723 231.031 303.973 231.18 304.246 231.266C304.527 231.352 304.816 231.395 305.113 231.395C306.035 231.395 306.766 231.219 307.305 230.867C307.844 230.508 308.23 230.027 308.465 229.426C308.707 228.816 308.828 228.141 308.828 227.398ZM321.285 229.637C321.285 229.324 321.215 229.035 321.074 228.77C320.941 228.496 320.664 228.25 320.242 228.031C319.828 227.805 319.203 227.609 318.367 227.445C317.664 227.297 317.027 227.121 316.457 226.918C315.895 226.715 315.414 226.469 315.016 226.18C314.625 225.891 314.324 225.551 314.113 225.16C313.902 224.77 313.797 224.312 313.797 223.789C313.797 223.289 313.906 222.816 314.125 222.371C314.352 221.926 314.668 221.531 315.074 221.188C315.488 220.844 315.984 220.574 316.562 220.379C317.141 220.184 317.785 220.086 318.496 220.086C319.512 220.086 320.379 220.266 321.098 220.625C321.816 220.984 322.367 221.465 322.75 222.066C323.133 222.66 323.324 223.32 323.324 224.047H321.156C321.156 223.695 321.051 223.355 320.84 223.027C320.637 222.691 320.336 222.414 319.938 222.195C319.547 221.977 319.066 221.867 318.496 221.867C317.895 221.867 317.406 221.961 317.031 222.148C316.664 222.328 316.395 222.559 316.223 222.84C316.059 223.121 315.977 223.418 315.977 223.73C315.977 223.965 316.016 224.176 316.094 224.363C316.18 224.543 316.328 224.711 316.539 224.867C316.75 225.016 317.047 225.156 317.43 225.289C317.812 225.422 318.301 225.555 318.895 225.688C319.934 225.922 320.789 226.203 321.461 226.531C322.133 226.859 322.633 227.262 322.961 227.738C323.289 228.215 323.453 228.793 323.453 229.473C323.453 230.027 323.336 230.535 323.102 230.996C322.875 231.457 322.543 231.855 322.105 232.191C321.676 232.52 321.16 232.777 320.559 232.965C319.965 233.145 319.297 233.234 318.555 233.234C317.438 233.234 316.492 233.035 315.719 232.637C314.945 232.238 314.359 231.723 313.961 231.09C313.562 230.457 313.363 229.789 313.363 229.086H315.543C315.574 229.68 315.746 230.152 316.059 230.504C316.371 230.848 316.754 231.094 317.207 231.242C317.66 231.383 318.109 231.453 318.555 231.453C319.148 231.453 319.645 231.375 320.043 231.219C320.449 231.062 320.758 230.848 320.969 230.574C321.18 230.301 321.285 229.988 321.285 229.637ZM331.609 220.32V221.984H324.754V220.32H331.609ZM327.074 217.238H329.242V229.859C329.242 230.289 329.309 230.613 329.441 230.832C329.574 231.051 329.746 231.195 329.957 231.266C330.168 231.336 330.395 231.371 330.637 231.371C330.816 231.371 331.004 231.355 331.199 231.324C331.402 231.285 331.555 231.254 331.656 231.23L331.668 233C331.496 233.055 331.27 233.105 330.988 233.152C330.715 233.207 330.383 233.234 329.992 233.234C329.461 233.234 328.973 233.129 328.527 232.918C328.082 232.707 327.727 232.355 327.461 231.863C327.203 231.363 327.074 230.691 327.074 229.848V217.238ZM339.414 233.234C338.531 233.234 337.73 233.086 337.012 232.789C336.301 232.484 335.688 232.059 335.172 231.512C334.664 230.965 334.273 230.316 334 229.566C333.727 228.816 333.59 227.996 333.59 227.105V226.613C333.59 225.582 333.742 224.664 334.047 223.859C334.352 223.047 334.766 222.359 335.289 221.797C335.812 221.234 336.406 220.809 337.07 220.52C337.734 220.23 338.422 220.086 339.133 220.086C340.039 220.086 340.82 220.242 341.477 220.555C342.141 220.867 342.684 221.305 343.105 221.867C343.527 222.422 343.84 223.078 344.043 223.836C344.246 224.586 344.348 225.406 344.348 226.297V227.27H334.879V225.5H342.18V225.336C342.148 224.773 342.031 224.227 341.828 223.695C341.633 223.164 341.32 222.727 340.891 222.383C340.461 222.039 339.875 221.867 339.133 221.867C338.641 221.867 338.188 221.973 337.773 222.184C337.359 222.387 337.004 222.691 336.707 223.098C336.41 223.504 336.18 224 336.016 224.586C335.852 225.172 335.77 225.848 335.77 226.613V227.105C335.77 227.707 335.852 228.273 336.016 228.805C336.188 229.328 336.434 229.789 336.754 230.188C337.082 230.586 337.477 230.898 337.938 231.125C338.406 231.352 338.938 231.465 339.531 231.465C340.297 231.465 340.945 231.309 341.477 230.996C342.008 230.684 342.473 230.266 342.871 229.742L344.184 230.785C343.91 231.199 343.562 231.594 343.141 231.969C342.719 232.344 342.199 232.648 341.582 232.883C340.973 233.117 340.25 233.234 339.414 233.234ZM349.047 223.027V233H346.879V220.32H348.93L349.047 223.027ZM348.531 226.18L347.629 226.145C347.637 225.277 347.766 224.477 348.016 223.742C348.266 223 348.617 222.355 349.07 221.809C349.523 221.262 350.062 220.84 350.688 220.543C351.32 220.238 352.02 220.086 352.785 220.086C353.41 220.086 353.973 220.172 354.473 220.344C354.973 220.508 355.398 220.773 355.75 221.141C356.109 221.508 356.383 221.984 356.57 222.57C356.758 223.148 356.852 223.855 356.852 224.691V233H354.672V224.668C354.672 224.004 354.574 223.473 354.379 223.074C354.184 222.668 353.898 222.375 353.523 222.195C353.148 222.008 352.688 221.914 352.141 221.914C351.602 221.914 351.109 222.027 350.664 222.254C350.227 222.48 349.848 222.793 349.527 223.191C349.215 223.59 348.969 224.047 348.789 224.562C348.617 225.07 348.531 225.609 348.531 226.18ZM365.453 220.32V221.984H358.598V220.32H365.453ZM360.918 217.238H363.086V229.859C363.086 230.289 363.152 230.613 363.285 230.832C363.418 231.051 363.59 231.195 363.801 231.266C364.012 231.336 364.238 231.371 364.48 231.371C364.66 231.371 364.848 231.355 365.043 231.324C365.246 231.285 365.398 231.254 365.5 231.23L365.512 233C365.34 233.055 365.113 233.105 364.832 233.152C364.559 233.207 364.227 233.234 363.836 233.234C363.305 233.234 362.816 233.129 362.371 232.918C361.926 232.707 361.57 232.355 361.305 231.863C361.047 231.363 360.918 230.691 360.918 229.848V217.238ZM375.473 230.832V224.305C375.473 223.805 375.371 223.371 375.168 223.004C374.973 222.629 374.676 222.34 374.277 222.137C373.879 221.934 373.387 221.832 372.801 221.832C372.254 221.832 371.773 221.926 371.359 222.113C370.953 222.301 370.633 222.547 370.398 222.852C370.172 223.156 370.059 223.484 370.059 223.836H367.891C367.891 223.383 368.008 222.934 368.242 222.488C368.477 222.043 368.812 221.641 369.25 221.281C369.695 220.914 370.227 220.625 370.844 220.414C371.469 220.195 372.164 220.086 372.93 220.086C373.852 220.086 374.664 220.242 375.367 220.555C376.078 220.867 376.633 221.34 377.031 221.973C377.438 222.598 377.641 223.383 377.641 224.328V230.234C377.641 230.656 377.676 231.105 377.746 231.582C377.824 232.059 377.938 232.469 378.086 232.812V233H375.824C375.715 232.75 375.629 232.418 375.566 232.004C375.504 231.582 375.473 231.191 375.473 230.832ZM375.848 225.312L375.871 226.836H373.68C373.062 226.836 372.512 226.887 372.027 226.988C371.543 227.082 371.137 227.227 370.809 227.422C370.48 227.617 370.23 227.863 370.059 228.16C369.887 228.449 369.801 228.789 369.801 229.18C369.801 229.578 369.891 229.941 370.07 230.27C370.25 230.598 370.52 230.859 370.879 231.055C371.246 231.242 371.695 231.336 372.227 231.336C372.891 231.336 373.477 231.195 373.984 230.914C374.492 230.633 374.895 230.289 375.191 229.883C375.496 229.477 375.66 229.082 375.684 228.699L376.609 229.742C376.555 230.07 376.406 230.434 376.164 230.832C375.922 231.23 375.598 231.613 375.191 231.98C374.793 232.34 374.316 232.641 373.762 232.883C373.215 233.117 372.598 233.234 371.91 233.234C371.051 233.234 370.297 233.066 369.648 232.73C369.008 232.395 368.508 231.945 368.148 231.383C367.797 230.812 367.621 230.176 367.621 229.473C367.621 228.793 367.754 228.195 368.02 227.68C368.285 227.156 368.668 226.723 369.168 226.379C369.668 226.027 370.27 225.762 370.973 225.582C371.676 225.402 372.461 225.312 373.328 225.312H375.848ZM371.969 218.445L374.242 215H376.855L373.715 218.445H371.969ZM384.719 231.043L388.188 220.32H390.402L385.844 233H384.391L384.719 231.043ZM381.824 220.32L385.398 231.102L385.645 233H384.191L379.598 220.32H381.824ZM397.586 233.234C396.703 233.234 395.902 233.086 395.184 232.789C394.473 232.484 393.859 232.059 393.344 231.512C392.836 230.965 392.445 230.316 392.172 229.566C391.898 228.816 391.762 227.996 391.762 227.105V226.613C391.762 225.582 391.914 224.664 392.219 223.859C392.523 223.047 392.938 222.359 393.461 221.797C393.984 221.234 394.578 220.809 395.242 220.52C395.906 220.23 396.594 220.086 397.305 220.086C398.211 220.086 398.992 220.242 399.648 220.555C400.312 220.867 400.855 221.305 401.277 221.867C401.699 222.422 402.012 223.078 402.215 223.836C402.418 224.586 402.52 225.406 402.52 226.297V227.27H393.051V225.5H400.352V225.336C400.32 224.773 400.203 224.227 400 223.695C399.805 223.164 399.492 222.727 399.062 222.383C398.633 222.039 398.047 221.867 397.305 221.867C396.812 221.867 396.359 221.973 395.945 222.184C395.531 222.387 395.176 222.691 394.879 223.098C394.582 223.504 394.352 224 394.188 224.586C394.023 225.172 393.941 225.848 393.941 226.613V227.105C393.941 227.707 394.023 228.273 394.188 228.805C394.359 229.328 394.605 229.789 394.926 230.188C395.254 230.586 395.648 230.898 396.109 231.125C396.578 231.352 397.109 231.465 397.703 231.465C398.469 231.465 399.117 231.309 399.648 230.996C400.18 230.684 400.645 230.266 401.043 229.742L402.355 230.785C402.082 231.199 401.734 231.594 401.312 231.969C400.891 232.344 400.371 232.648 399.754 232.883C399.145 233.117 398.422 233.234 397.586 233.234ZM407.406 215V233H405.227V215H407.406ZM410.922 231.852C410.922 231.484 411.035 231.176 411.262 230.926C411.496 230.668 411.832 230.539 412.27 230.539C412.707 230.539 413.039 230.668 413.266 230.926C413.5 231.176 413.617 231.484 413.617 231.852C413.617 232.211 413.5 232.516 413.266 232.766C413.039 233.016 412.707 233.141 412.27 233.141C411.832 233.141 411.496 233.016 411.262 232.766C411.035 232.516 410.922 232.211 410.922 231.852Z" fill="black"/>
<path d="M163.831 128.45V174.2H158.05V135.669L146.394 139.919V134.7L162.925 128.45H163.831ZM210.237 128.7V131.95L191.394 174.2H185.3L204.112 133.45H179.487V128.7H210.237ZM269.237 150.013V152.888C269.237 156.304 268.81 159.367 267.956 162.075C267.102 164.783 265.873 167.085 264.269 168.981C262.664 170.877 260.737 172.325 258.487 173.325C256.258 174.325 253.758 174.825 250.987 174.825C248.3 174.825 245.831 174.325 243.581 173.325C241.352 172.325 239.414 170.877 237.769 168.981C236.144 167.085 234.883 164.783 233.987 162.075C233.091 159.367 232.644 156.304 232.644 152.888V150.013C232.644 146.596 233.081 143.544 233.956 140.856C234.852 138.148 236.112 135.846 237.737 133.95C239.362 132.033 241.289 130.575 243.519 129.575C245.769 128.575 248.237 128.075 250.925 128.075C253.696 128.075 256.196 128.575 258.425 129.575C260.675 130.575 262.602 132.033 264.206 133.95C265.831 135.846 267.071 138.148 267.925 140.856C268.8 143.544 269.237 146.596 269.237 150.013ZM263.269 152.888V149.95C263.269 147.242 262.987 144.846 262.425 142.763C261.883 140.679 261.081 138.929 260.019 137.513C258.956 136.096 257.654 135.023 256.112 134.294C254.591 133.565 252.862 133.2 250.925 133.2C249.05 133.2 247.352 133.565 245.831 134.294C244.331 135.023 243.039 136.096 241.956 137.513C240.894 138.929 240.071 140.679 239.487 142.763C238.904 144.846 238.612 147.242 238.612 149.95V152.888C238.612 155.617 238.904 158.033 239.487 160.138C240.071 162.221 240.904 163.981 241.987 165.419C243.091 166.835 244.394 167.908 245.894 168.638C247.414 169.367 249.112 169.731 250.987 169.731C252.946 169.731 254.685 169.367 256.206 168.638C257.727 167.908 259.008 166.835 260.05 165.419C261.112 163.981 261.914 162.221 262.456 160.138C262.998 158.033 263.269 155.617 263.269 152.888ZM290.581 174.2H281.081L281.144 169.294H290.581C293.831 169.294 296.539 168.617 298.706 167.263C300.873 165.888 302.498 163.971 303.581 161.513C304.685 159.033 305.237 156.138 305.237 152.825V150.044C305.237 147.44 304.925 145.127 304.3 143.106C303.675 141.065 302.758 139.346 301.55 137.95C300.341 136.533 298.862 135.46 297.112 134.731C295.383 134.002 293.394 133.638 291.144 133.638H280.894V128.7H291.144C294.123 128.7 296.841 129.2 299.3 130.2C301.758 131.179 303.873 132.606 305.644 134.481C307.435 136.335 308.81 138.585 309.769 141.231C310.727 143.856 311.206 146.815 311.206 150.106V152.825C311.206 156.117 310.727 159.085 309.769 161.731C308.81 164.356 307.425 166.596 305.612 168.45C303.821 170.304 301.654 171.731 299.112 172.731C296.591 173.71 293.748 174.2 290.581 174.2ZM284.3 128.7V174.2H278.269V128.7H284.3ZM344.519 162.7C344.519 161.638 344.352 160.7 344.019 159.888C343.706 159.054 343.144 158.304 342.331 157.638C341.539 156.971 340.435 156.335 339.019 155.731C337.623 155.127 335.852 154.513 333.706 153.888C331.456 153.221 329.425 152.481 327.612 151.669C325.8 150.835 324.248 149.888 322.956 148.825C321.664 147.763 320.675 146.544 319.987 145.169C319.3 143.794 318.956 142.221 318.956 140.45C318.956 138.679 319.321 137.044 320.05 135.544C320.779 134.044 321.821 132.742 323.175 131.638C324.55 130.513 326.185 129.638 328.081 129.013C329.977 128.388 332.091 128.075 334.425 128.075C337.841 128.075 340.737 128.731 343.112 130.044C345.508 131.335 347.331 133.033 348.581 135.138C349.831 137.221 350.456 139.45 350.456 141.825H344.456C344.456 140.117 344.091 138.606 343.362 137.294C342.633 135.96 341.529 134.919 340.05 134.169C338.571 133.398 336.696 133.013 334.425 133.013C332.279 133.013 330.508 133.335 329.112 133.981C327.716 134.627 326.675 135.502 325.987 136.606C325.321 137.71 324.987 138.971 324.987 140.388C324.987 141.346 325.185 142.221 325.581 143.013C325.998 143.783 326.633 144.502 327.487 145.169C328.362 145.835 329.466 146.45 330.8 147.013C332.154 147.575 333.769 148.117 335.644 148.638C338.227 149.367 340.456 150.179 342.331 151.075C344.206 151.971 345.748 152.981 346.956 154.106C348.185 155.21 349.091 156.471 349.675 157.888C350.279 159.283 350.581 160.867 350.581 162.638C350.581 164.492 350.206 166.169 349.456 167.669C348.706 169.169 347.633 170.45 346.237 171.513C344.841 172.575 343.164 173.398 341.206 173.981C339.269 174.544 337.102 174.825 334.706 174.825C332.602 174.825 330.529 174.533 328.487 173.95C326.466 173.367 324.623 172.492 322.956 171.325C321.31 170.158 319.987 168.721 318.987 167.013C318.008 165.283 317.519 163.283 317.519 161.013H323.519C323.519 162.575 323.821 163.919 324.425 165.044C325.029 166.148 325.852 167.065 326.894 167.794C327.956 168.523 329.154 169.065 330.487 169.419C331.841 169.752 333.248 169.919 334.706 169.919C336.81 169.919 338.591 169.627 340.05 169.044C341.508 168.46 342.612 167.627 343.362 166.544C344.133 165.46 344.519 164.179 344.519 162.7Z" fill="url(#paint1_diamond_201_5)"/>
<defs>
<radialGradient id="paint0_radial_201_5" cx="0" cy="0" r="1" gradientUnits="userSpaceOnUse" gradientTransform="translate(224.013 183.057) rotate(90) scale(176.943 224.013)">
<stop stop-color="#D0FFB3"/>
<stop offset="1" stop-color="#D9D9D9" stop-opacity="0"/>
</radialGradient>
<radialGradient id="paint1_diamond_201_5" cx="0" cy="0" r="1" gradientUnits="userSpaceOnUse" gradientTransform="translate(141.05 183.225) rotate(6.46445) scale(437.879 656.926)">
<stop offset="0.557292"/>
<stop offset="1" stop-color="white" stop-opacity="0"/>
</radialGradient>
</defs>
</svg>
